<svg width="184" height="167" viewBox="0 0 184 167" fill="none" xmlns="http://www.w3.org/2000/svg">
<g clip-path="url(#clip0_20_162)">
<path d="M51.88 112.09C39.4 112.09 31.93 119.81 31.93 129.32C31.93 138.83 39.4 146.54 51.88 146.54C64.36 146.54 71.88 138.84 71.88 129.31C71.88 119.78 64.38 112.09 51.88 112.09ZM51.88 142.85C45.88 142.85 41.36 136.79 41.36 129.32C41.36 121.85 45.91 115.79 51.88 115.79C57.85 115.79 62.43 121.85 62.43 129.32C62.43 136.79 57.88 142.85 51.88 142.85Z" fill="#ED1C24"/>
<path d="M73.56 117.18H86.7V145.13H96.6V117.18H107.7V113.36H73.56V117.18Z" fill="#ED1C24"/>
<path d="M111.31 117.18H122.39V145.13H132.29V117.18H145.45V113.36H111.31V117.18Z" fill="#ED1C24"/>
<path d="M12.22 139.42V113.36H2.71002V141.36C2.71002 141.857 2.80812 142.35 2.99871 142.809C3.1893 143.268 3.46863 143.685 3.82069 144.036C4.17276 144.388 4.59064 144.666 5.05041 144.855C5.51017 145.045 6.00278 145.141 6.50002 145.14H30.79V141.34H14.11C13.8593 141.34 13.611 141.29 13.3798 141.193C13.1485 141.097 12.9388 140.955 12.7629 140.776C12.587 140.597 12.4484 140.385 12.3552 140.153C12.262 139.92 12.216 139.671 12.22 139.42Z" fill="#ED1C24"/>
<path d="M150.83 117.13V141.34C150.83 142.345 151.229 143.309 151.94 144.02C152.651 144.731 153.615 145.13 154.62 145.13H180.52V141.37H162.24C161.739 141.37 161.258 141.171 160.904 140.817C160.549 140.462 160.35 139.981 160.35 139.48V130.11H180.23V126.4H160.35V118.99C160.353 118.491 160.553 118.012 160.907 117.66C161.261 117.308 161.74 117.11 162.24 117.11H180.52V113.36H154.62C154.124 113.359 153.632 113.455 153.173 113.644C152.714 113.833 152.296 114.11 151.944 114.46C151.592 114.81 151.313 115.226 151.122 115.684C150.93 116.142 150.831 116.634 150.83 117.13Z" fill="#ED1C24"/>
<path d="M110.3 83.06C105.333 87.9947 98.6163 90.7644 91.615 90.7644C84.6137 90.7644 77.8966 87.9947 72.93 83.06L53.93 64.06C48.9922 59.093 46.2206 52.3738 46.2206 45.37C46.2206 38.3662 48.9922 31.647 53.93 26.68L72.93 7.67998C77.8966 2.74523 84.6137 -0.0244141 91.615 -0.0244141C98.6163 -0.0244141 105.333 2.74523 110.3 7.67998L129.3 26.68C134.238 31.647 137.009 38.3662 137.009 45.37C137.009 52.3738 134.238 59.093 129.3 64.06L110.3 83.06Z" fill="#ED1C24"/>
<path d="M80.36 73.2701C79.636 73.2543 78.9475 72.9536 78.4439 72.4332C77.9403 71.9129 77.6623 71.2149 77.6702 70.4908C77.6781 69.7666 77.9713 69.0749 78.4861 68.5656C79.0009 68.0564 79.6959 67.7708 80.42 67.7708C81.1442 67.7708 81.8391 68.0564 82.3539 68.5656C82.8688 69.0749 83.1619 69.7666 83.1698 70.4908C83.1777 71.2149 82.8997 71.9129 82.3961 72.4332C81.8925 72.9536 81.204 73.2543 80.48 73.2701H80.36Z" fill="white"/>
<path d="M90.62 21.44C89.9245 21.4143 89.2311 21.5314 88.5827 21.7843C87.9342 22.0371 87.3445 22.4202 86.85 22.91C84.62 25.05 83.52 29.47 83.62 35.35C83.74 42.6 85.47 56.82 91.17 64.15C92.008 65.2459 93.0217 66.1954 94.17 66.96C95.2915 67.8047 96.656 68.2642 98.06 68.27C98.5699 68.2707 99.0788 68.2239 99.58 68.13C102.85 67.35 106.95 63.71 109.99 58.86C110.219 58.4999 110.536 58.2031 110.909 57.9969C111.283 57.7908 111.703 57.6818 112.13 57.68C112.604 57.6844 113.068 57.8194 113.47 58.07C113.749 58.2459 113.991 58.4751 114.181 58.7445C114.372 59.0139 114.507 59.3182 114.58 59.64C114.656 59.962 114.667 60.296 114.612 60.6223C114.557 60.9486 114.437 61.2607 114.26 61.54C110.41 67.67 105.32 71.97 100.65 73.05H100.54C99.7148 73.1982 98.8784 73.2751 98.04 73.28C95.6595 73.2649 93.3413 72.5177 91.4 71.14C89.8086 70.0653 88.4034 68.7378 87.24 67.21C79.17 56.93 78.62 37.61 78.62 35.44C78.53 30.3 79.27 23.33 83.29 19.34C84.2455 18.3835 85.3851 17.6307 86.6398 17.1271C87.8945 16.6235 89.2383 16.3795 90.59 16.41H91.06C92.4133 16.3782 93.7591 16.6214 95.0156 17.1251C96.2721 17.6287 97.4133 18.3823 98.37 19.34C102.37 23.34 103.13 30.34 103.04 35.44C102.95 40.8 101.97 51.18 96.41 60.44C96.0491 60.9727 95.4981 61.3471 94.8699 61.4866C94.2418 61.626 93.5841 61.5199 93.0317 61.19C92.4792 60.8601 92.074 60.3313 91.8989 59.7122C91.7238 59.093 91.7922 58.4303 92.09 57.86C95.97 51.35 97.85 44.18 98 35.31C98.1 29.43 97 25.01 94.82 22.87C94.3255 22.3802 93.7358 21.9971 93.0874 21.7443C92.4389 21.4914 91.7455 21.3742 91.05 21.4L90.62 21.44Z" fill="white"/>
<path d="M5.24001 157.18C5.95788 157.171 6.67291 157.272 7.36001 157.48C7.95027 157.657 8.49812 157.953 8.97001 158.35C9.40378 158.728 9.74576 159.2 9.97001 159.73C10.2175 160.315 10.3401 160.945 10.33 161.58C10.3357 162.181 10.2058 162.776 9.95001 163.32C9.69056 163.859 9.32294 164.339 8.87001 164.73C8.39101 165.158 7.83889 165.497 7.24001 165.73C6.59905 165.963 5.92205 166.082 5.24001 166.08H1.13001C0.975079 166.094 0.818919 166.075 0.672213 166.023C0.525508 165.971 0.39172 165.888 0.280007 165.78C0.0765286 165.538 -0.0239823 165.225 7.36373e-06 164.91V158.34C-0.0239823 158.025 0.0765286 157.712 0.280007 157.47C0.394009 157.366 0.528381 157.286 0.674666 157.236C0.820952 157.186 0.975984 157.167 1.13001 157.18H5.24001ZM4.89001 164.98C5.24042 164.973 5.58381 164.88 5.89001 164.71C6.23101 164.526 6.53324 164.278 6.78001 163.98C7.04671 163.654 7.25633 163.286 7.40001 162.89C7.55418 162.457 7.62871 162 7.62001 161.54C7.62357 161.08 7.5457 160.623 7.39001 160.19C7.2485 159.805 7.03844 159.45 6.77001 159.14C6.52556 158.85 6.22219 158.614 5.88001 158.45C5.56848 158.297 5.22697 158.215 4.88001 158.21H3.47001C3.25928 158.189 3.04698 158.23 2.86001 158.33C2.75001 158.4 2.69001 158.59 2.69001 158.89V164.23C2.68408 164.337 2.68408 164.443 2.69001 164.55C2.68856 164.629 2.71316 164.706 2.76001 164.77C2.80976 164.833 2.87535 164.881 2.95001 164.91C3.06961 164.924 3.19041 164.924 3.31001 164.91L4.89001 164.98Z" fill="#ED1C24"/>
<path d="M18.93 166.04L18.02 164.26H12.91L12 166.04H10.25L14.74 157.76C14.8235 157.586 14.9555 157.441 15.12 157.34C15.2895 157.23 15.4882 157.175 15.69 157.18H16.62C16.8246 157.177 17.0257 157.233 17.2 157.34C17.3664 157.441 17.5015 157.587 17.59 157.76L21.78 166.04H18.93ZM13.45 163.21H17.45L15.91 160.21C15.8515 160.105 15.7847 160.004 15.71 159.91C15.68 159.864 15.6382 159.827 15.589 159.802C15.5398 159.778 15.4849 159.766 15.43 159.77C15.3742 159.77 15.3192 159.783 15.269 159.807C15.2188 159.831 15.1747 159.866 15.14 159.91C15.0627 160 14.9987 160.102 14.95 160.21L13.45 163.21Z" fill="#ED1C24"/>
<path d="M26.62 158.24V166.04H23.93V158.24H20.45V157.18H30.12V158.24H26.62Z" fill="#ED1C24"/>
<path d="M37.46 166.04L36.56 164.26H31.45L30.53 166.04H28.78L33.27 157.76C33.3536 157.586 33.4855 157.441 33.65 157.34C33.8195 157.23 34.0182 157.175 34.22 157.18H35.13C35.3313 157.179 35.5289 157.234 35.7 157.34C35.8665 157.441 36.0015 157.587 36.09 157.76L40.28 166.04H37.46ZM31.98 163.21H35.98L34.44 160.21C34.3816 160.105 34.3147 160.004 34.24 159.91C34.2108 159.865 34.1707 159.829 34.1234 159.805C34.0761 159.78 34.0233 159.768 33.97 159.77C33.9128 159.77 33.8563 159.782 33.8044 159.807C33.7526 159.831 33.7067 159.866 33.67 159.91C33.5962 160.003 33.5325 160.104 33.48 160.21L31.98 163.21Z" fill="#ED1C24"/>
<path d="M55.55 163.31C55.361 163.763 55.1048 164.184 54.79 164.56C54.4561 164.948 54.0609 165.279 53.62 165.54C53.1469 165.828 52.635 166.047 52.1 166.19C51.4927 166.348 50.8674 166.425 50.24 166.42C49.4438 166.431 48.6519 166.302 47.9 166.04C47.2638 165.816 46.6741 165.477 46.16 165.04C45.6914 164.612 45.3169 164.091 45.06 163.51C44.8068 162.912 44.6775 162.269 44.68 161.62C44.6774 160.977 44.8068 160.341 45.06 159.75C45.3097 159.17 45.6775 158.649 46.14 158.22C46.6522 157.775 47.2468 157.436 47.89 157.22C48.6458 156.961 49.4411 156.836 50.24 156.85C50.8868 156.84 51.5322 156.914 52.16 157.07C52.6859 157.203 53.1884 157.415 53.65 157.7C54.0749 157.963 54.4478 158.302 54.75 158.7C55.0577 159.065 55.3103 159.472 55.5 159.91H52.91C52.792 159.62 52.641 159.345 52.46 159.09C52.289 158.851 52.0872 158.636 51.86 158.45C51.6433 158.266 51.3963 158.12 51.13 158.02C50.8648 157.919 50.5835 157.869 50.3 157.87C49.8833 157.87 49.4735 157.976 49.11 158.18C48.7445 158.383 48.4272 158.663 48.18 159C47.9068 159.366 47.6971 159.775 47.56 160.21C47.2463 161.185 47.2463 162.235 47.56 163.21C47.7022 163.647 47.9187 164.056 48.2 164.42C48.4519 164.749 48.7728 165.018 49.14 165.21C49.4933 165.401 49.8885 165.5 50.29 165.5C50.5733 165.5 50.8544 165.449 51.12 165.35C51.3883 165.248 51.6382 165.102 51.86 164.92C52.3558 164.525 52.7301 163.998 52.94 163.4L55.55 163.31Z" fill="#ED1C24"/>
<path d="M67.78 161.61C67.7834 162.24 67.6539 162.864 67.4 163.44C67.1465 164.02 66.7754 164.541 66.31 164.97C65.7977 165.429 65.2042 165.789 64.56 166.03C63.803 166.3 63.0037 166.433 62.2 166.42C61.3864 166.434 60.577 166.302 59.81 166.03C59.1677 165.791 58.577 165.431 58.07 164.97C57.6076 164.541 57.2398 164.02 56.99 163.44C56.7486 162.86 56.6229 162.238 56.62 161.61C56.619 160.983 56.7378 160.362 56.97 159.78C57.2084 159.196 57.57 158.671 58.03 158.24C58.5394 157.797 59.1305 157.457 59.77 157.24C61.3483 156.72 63.0517 156.72 64.63 157.24C65.2736 157.455 65.8684 157.795 66.38 158.24C66.8221 158.674 67.1635 159.2 67.38 159.78C67.634 160.357 67.77 160.98 67.78 161.61ZM62.2 157.78C61.7866 157.781 61.3804 157.888 61.02 158.09C60.6541 158.297 60.3369 158.58 60.09 158.92C59.8168 159.286 59.6072 159.695 59.47 160.13C59.163 161.089 59.163 162.121 59.47 163.08C59.6072 163.515 59.8168 163.924 60.09 164.29C60.3373 164.627 60.6545 164.907 61.02 165.11C61.3812 165.309 61.7875 165.413 62.2 165.41C62.6094 165.413 63.0125 165.309 63.37 165.11C63.7355 164.907 64.0527 164.627 64.3 164.29C64.577 163.927 64.787 163.517 64.92 163.08C65.227 162.121 65.227 161.089 64.92 160.13C64.787 159.693 64.577 159.283 64.3 158.92C64.0531 158.58 63.7359 158.297 63.37 158.09C63.0132 157.888 62.6102 157.781 62.2 157.78Z" fill="#ED1C24"/>
<path d="M74.4 166.04H74.14C74.0522 166.05 73.9635 166.029 73.89 165.98C73.7936 165.927 73.7113 165.851 73.65 165.76C73.5402 165.619 73.4556 165.46 73.4 165.29L71.11 159.48V166.04H69.52V157.91C69.5174 157.717 69.589 157.531 69.72 157.39C69.8043 157.316 69.9025 157.259 70.009 157.223C70.1154 157.187 70.2279 157.172 70.34 157.18H72.06C72.3101 157.171 72.556 157.245 72.76 157.39C72.9339 157.525 73.0685 157.705 73.15 157.91L75.02 162.91L77.02 157.91C77.1085 157.706 77.2459 157.528 77.42 157.39C77.6195 157.244 77.8628 157.17 78.11 157.18H79.95C80.0622 157.17 80.1752 157.184 80.2819 157.22C80.3885 157.256 80.4866 157.314 80.57 157.39C80.638 157.458 80.6916 157.539 80.7277 157.629C80.7638 157.718 80.7816 157.814 80.78 157.91V166.04H78.08V159.32L75.62 165.38C75.5691 165.522 75.4984 165.657 75.41 165.78C75.3494 165.857 75.2747 165.921 75.19 165.97C75.1158 166.009 75.0336 166.029 74.95 166.03H74.36L74.4 166.04Z" fill="#ED1C24"/>
<path d="M87.8 166.04H87.53C87.4454 166.049 87.3604 166.028 87.29 165.98C87.1936 165.927 87.1113 165.851 87.05 165.76C86.9402 165.619 86.8556 165.46 86.8 165.29L84.5 159.48V166.04H82.92V157.91C82.9174 157.717 82.989 157.531 83.12 157.39C83.2037 157.315 83.3018 157.257 83.4084 157.221C83.515 157.185 83.6278 157.171 83.74 157.18H85.46C85.7069 157.171 85.9498 157.245 86.15 157.39C86.3298 157.522 86.4685 157.702 86.55 157.91L88.42 162.91L90.42 157.91C90.5085 157.706 90.6459 157.528 90.82 157.39C91.0195 157.244 91.2628 157.17 91.51 157.18H93.35C93.4622 157.17 93.5752 157.184 93.6819 157.22C93.7885 157.256 93.8866 157.314 93.97 157.39C94.0367 157.459 94.0888 157.54 94.1231 157.629C94.1575 157.719 94.1734 157.814 94.17 157.91V166.04H91.48V159.32L89.05 165.38C89.0062 165.523 88.9386 165.659 88.85 165.78C88.7859 165.857 88.7079 165.922 88.62 165.97C88.5499 166.01 88.4706 166.03 88.39 166.03H87.8V166.04Z" fill="#ED1C24"/>
<path d="M98.74 157.18V163.02C98.732 163.361 98.7897 163.701 98.91 164.02C99.0113 164.295 99.1718 164.544 99.38 164.75C99.5786 164.943 99.8177 165.09 100.08 165.18C100.352 165.282 100.64 165.332 100.93 165.33C101.227 165.332 101.521 165.281 101.8 165.18C102.06 165.092 102.297 164.945 102.49 164.75C102.694 164.54 102.854 164.292 102.96 164.02C103.076 163.699 103.133 163.361 103.13 163.02V157.18H105.82V162.67C105.828 163.2 105.712 163.724 105.48 164.2C105.247 164.668 104.904 165.073 104.48 165.38C104.015 165.727 103.489 165.985 102.93 166.14C101.597 166.5 100.193 166.5 98.86 166.14C98.3068 165.985 97.7877 165.727 97.33 165.38C96.9071 165.072 96.5642 164.668 96.33 164.2C96.1028 163.722 95.9866 163.199 95.99 162.67V157.18H98.74Z" fill="#ED1C24"/>
<path d="M117.91 165.29C117.911 165.487 117.836 165.677 117.7 165.82C117.619 165.896 117.523 165.955 117.418 165.993C117.313 166.031 117.201 166.047 117.09 166.04H115.62C115.352 166.057 115.086 165.98 114.87 165.82C114.685 165.664 114.524 165.482 114.39 165.28L110.45 159.08V166.08H107.76V157.97C107.756 157.774 107.828 157.584 107.96 157.44C108.04 157.362 108.136 157.303 108.241 157.265C108.347 157.227 108.459 157.212 108.57 157.22H110.14C110.392 157.212 110.64 157.282 110.85 157.42C111.036 157.56 111.196 157.733 111.32 157.93L115.18 164.12V157.22H117.87L117.91 165.29Z" fill="#ED1C24"/>
<path d="M119.92 157.18H122.62V166.04H119.92V157.18Z" fill="#ED1C24"/>
<path d="M135.07 163.31C134.881 163.763 134.625 164.184 134.31 164.56C133.987 164.953 133.602 165.291 133.17 165.56C132.7 165.846 132.191 166.065 131.66 166.21C131.052 166.366 130.427 166.444 129.8 166.44C129.004 166.452 128.211 166.324 127.46 166.06C126.82 165.838 126.226 165.499 125.71 165.06C125.245 164.631 124.873 164.11 124.62 163.53C124.362 162.934 124.233 162.29 124.24 161.64C124.234 160.998 124.36 160.361 124.61 159.77C124.86 159.19 125.228 158.669 125.69 158.24C126.204 157.797 126.798 157.458 127.44 157.24C128.199 156.981 128.998 156.856 129.8 156.87C130.447 156.861 131.092 156.935 131.72 157.09C132.243 157.223 132.742 157.435 133.2 157.72C133.626 157.986 134.002 158.324 134.31 158.72C134.611 159.087 134.86 159.495 135.05 159.93H132.43C132.312 159.64 132.161 159.365 131.98 159.11C131.809 158.871 131.607 158.656 131.38 158.47C131.165 158.283 130.917 158.138 130.65 158.04C130.385 157.939 130.104 157.889 129.82 157.89C129.406 157.89 129 157.996 128.64 158.2C128.271 158.403 127.951 158.682 127.7 159.02C127.427 159.386 127.217 159.795 127.08 160.23C126.929 160.705 126.855 161.201 126.86 161.7C126.857 162.219 126.934 162.735 127.09 163.23C127.232 163.667 127.449 164.076 127.73 164.44C127.984 164.767 128.305 165.036 128.67 165.23C129.024 165.419 129.419 165.519 129.82 165.52C130.103 165.521 130.385 165.47 130.65 165.37C130.918 165.268 131.168 165.122 131.39 164.94C131.629 164.75 131.841 164.528 132.02 164.28C132.214 164.017 132.369 163.728 132.48 163.42L135.07 163.31Z" fill="#ED1C24"/>
<path d="M143.62 166.04L142.71 164.26H137.6L136.62 166.04H134.87L139.36 157.76C139.449 157.587 139.584 157.441 139.75 157.34C139.919 157.23 140.118 157.175 140.32 157.18H141.22C141.422 157.175 141.62 157.23 141.79 157.34C141.962 157.437 142.101 157.584 142.19 157.76L146.38 166.04H143.62ZM138.14 163.21H142.14L140.61 160.21C140.552 160.105 140.485 160.004 140.41 159.91C140.378 159.866 140.336 159.83 140.287 159.806C140.238 159.782 140.184 159.769 140.13 159.77C140.073 159.77 140.016 159.782 139.964 159.807C139.913 159.831 139.867 159.866 139.83 159.91C139.756 160.003 139.692 160.104 139.64 160.21L138.14 163.21Z" fill="#ED1C24"/>
<path d="M151.28 158.24V166.04H148.62V158.24H145.14V157.18H154.81V158.24H151.28Z" fill="#ED1C24"/>
<path d="M155.92 157.18H158.62V166.04H155.92V157.18Z" fill="#ED1C24"/>
<path d="M171.39 161.61C171.389 162.239 171.259 162.862 171.01 163.44C170.753 164.021 170.379 164.542 169.91 164.97C169.398 165.429 168.804 165.789 168.16 166.03C166.623 166.55 164.957 166.55 163.42 166.03C162.778 165.791 162.187 165.431 161.68 164.97C161.219 164.544 160.857 164.022 160.62 163.44C160.374 162.861 160.248 162.239 160.25 161.61C160.249 160.983 160.368 160.362 160.6 159.78C160.817 159.2 161.158 158.674 161.6 158.24C162.112 157.794 162.706 157.455 163.35 157.24C164.127 156.966 164.946 156.834 165.77 156.85C166.597 156.835 167.419 156.967 168.2 157.24C168.844 157.455 169.438 157.794 169.95 158.24C170.41 158.671 170.772 159.196 171.01 159.78C171.252 160.36 171.381 160.981 171.39 161.61ZM165.8 157.78C165.39 157.781 164.987 157.888 164.63 158.09C164.263 158.299 163.943 158.582 163.69 158.92C163.421 159.288 163.211 159.696 163.07 160.13C162.776 161.091 162.776 162.119 163.07 163.08C163.211 163.514 163.421 163.922 163.69 164.29C163.942 164.626 164.263 164.906 164.63 165.11C164.988 165.309 165.391 165.413 165.8 165.41C166.212 165.411 166.618 165.308 166.98 165.11C167.346 164.907 167.663 164.627 167.91 164.29C168.183 163.924 168.393 163.515 168.53 163.08C168.837 162.121 168.837 161.089 168.53 160.13C168.393 159.695 168.183 159.286 167.91 158.92C167.663 158.58 167.346 158.297 166.98 158.09C166.619 157.889 166.213 157.782 165.8 157.78Z" fill="#ED1C24"/>
<path d="M183.24 165.29C183.241 165.487 183.166 165.677 183.03 165.82C182.949 165.896 182.853 165.955 182.748 165.993C182.643 166.031 182.531 166.047 182.42 166.04H180.99C180.721 166.061 180.455 165.983 180.24 165.82C180.05 165.669 179.888 165.486 179.76 165.28L175.82 159.08V166.08H173.13V157.97C173.126 157.873 173.141 157.776 173.176 157.685C173.21 157.593 173.263 157.51 173.33 157.44C173.41 157.361 173.505 157.301 173.611 157.263C173.716 157.225 173.828 157.21 173.94 157.22H175.51C175.761 157.213 176.009 157.283 176.22 157.42C176.404 157.563 176.563 157.735 176.69 157.93L180.55 164.12V157.22H183.24V165.29Z" fill="#ED1C24"/>
</g>
<defs>
<clipPath id="clip0_20_162">
<rect width="183.23" height="166.42" fill="white"/>
</clipPath>
</defs>
</svg>
