<svg width="44" height="44" viewBox="0 0 44 44" fill="none" xmlns="http://www.w3.org/2000/svg">
<path d="M28.6183 3.66666H15.3817C8.91166 3.66666 3.66667 8.91165 3.66667 15.3817V28.6183C3.66667 35.0883 8.91166 40.3333 15.3817 40.3333H28.6183C35.0884 40.3333 40.3333 35.0883 40.3333 28.6183V15.3817C40.3333 8.91165 35.0884 3.66666 28.6183 3.66666Z" fill="#6AB04C"/>
<path d="M24.4933 13.6217C25.245 13.6217 25.85 14.2267 25.85 14.9783V25.74C25.85 26.4917 25.245 27.0967 24.4933 27.0967H16.2617C15.51 27.0967 14.905 26.4917 14.905 25.74V14.9783C14.905 14.2267 15.51 13.6217 16.2617 13.6217H24.4933ZM24.4933 12.3017H16.2617C14.7767 12.3017 13.5667 13.5117 13.5667 14.9967V25.7583C13.5667 27.2433 14.7767 28.4533 16.2617 28.4533H24.4933C25.9783 28.4533 27.1883 27.2433 27.1883 25.7583V14.9967C27.1883 13.5117 25.9783 12.3017 24.4933 12.3017Z" fill="white"/>
<path d="M19.5067 31.0383C18.645 31.0383 17.8933 30.4883 17.6 29.7C17.8933 30.47 18.6267 31.0383 19.5067 31.0383Z" fill="white"/>
<path d="M27.775 15.565V16.885C28.5083 16.9033 29.1133 17.5083 29.1133 18.2417V29.0033C29.1133 29.755 28.5083 30.36 27.7567 30.36H19.525C18.7733 30.36 18.1867 29.755 18.1683 29.0217H16.8483C16.8483 30.4883 18.0583 31.68 19.5433 31.68H27.775C29.26 31.68 30.47 30.47 30.47 28.985V18.2233C30.47 16.7567 29.2783 15.5467 27.8117 15.5283L27.775 15.565Z" fill="white"/>
<path d="M18.975 16.1517H16.83C16.4857 16.1517 16.2067 16.4307 16.2067 16.775V18.6633C16.2067 19.0076 16.4857 19.2867 16.83 19.2867H18.975C19.3193 19.2867 19.5983 19.0076 19.5983 18.6633V16.775C19.5983 16.4307 19.3193 16.1517 18.975 16.1517Z" fill="white"/>
<path d="M24.4017 18.205H20.5517C20.42 18.205 20.3133 18.3117 20.3133 18.4433V19.0483C20.3133 19.18 20.42 19.2867 20.5517 19.2867H24.4017C24.5333 19.2867 24.64 19.18 24.64 19.0483V18.4433C24.64 18.3117 24.5333 18.205 24.4017 18.205Z" fill="white"/>
<path d="M24.4017 16.1517H20.5517C20.42 16.1517 20.3133 16.2584 20.3133 16.39V16.995C20.3133 17.1266 20.42 17.2333 20.5517 17.2333H24.4017C24.5333 17.2333 24.64 17.1266 24.64 16.995V16.39C24.64 16.2584 24.5333 16.1517 24.4017 16.1517Z" fill="white"/>
<path d="M24.42 20.02H16.4633C16.3317 20.02 16.225 20.1267 16.225 20.2583V20.8633C16.225 20.995 16.3317 21.1017 16.4633 21.1017H24.42C24.5516 21.1017 24.6583 20.995 24.6583 20.8633V20.2583C24.6583 20.1267 24.5516 20.02 24.42 20.02Z" fill="white"/>
<path d="M24.42 21.8167H16.4633C16.3317 21.8167 16.225 21.9234 16.225 22.055V22.66C16.225 22.7916 16.3317 22.8983 16.4633 22.8983H24.42C24.5516 22.8983 24.6583 22.7916 24.6583 22.66V22.055C24.6583 21.9234 24.5516 21.8167 24.42 21.8167Z" fill="white"/>
<path d="M24.42 23.7417H16.4633C16.3317 23.7417 16.225 23.8484 16.225 23.98V24.585C16.225 24.7166 16.3317 24.8233 16.4633 24.8233H24.42C24.5516 24.8233 24.6583 24.7166 24.6583 24.585V23.98C24.6583 23.8484 24.5516 23.7417 24.42 23.7417Z" fill="white"/>
</svg>
