<svg width="292" height="92" viewBox="0 0 292 92" fill="none" xmlns="http://www.w3.org/2000/svg">
<path d="M65.0794 84.0844C60.1128 89.0191 53.3957 91.7888 46.3944 91.7888C39.393 91.7888 32.676 89.0191 27.7094 84.0844L8.70936 65.0844C3.77158 60.1174 1 53.3982 1 46.3944C1 39.3906 3.77158 32.6714 8.70936 27.7044L27.7094 8.70439C32.676 3.76965 39.393 1 46.3944 1C53.3957 1 60.1128 3.76965 65.0794 8.70439L84.0794 27.7044C89.0171 32.6714 91.7887 39.3906 91.7887 46.3944C91.7887 53.3982 89.0171 60.1174 84.0794 65.0844L65.0794 84.0844Z" fill="#ED1C24"/>
<path d="M35.1395 74.2945C34.4155 74.2787 33.727 73.978 33.2234 73.4576C32.7198 72.9373 32.4417 72.2393 32.4496 71.5152C32.4575 70.7911 32.7507 70.0993 33.2656 69.59C33.7804 69.0808 34.4753 68.7952 35.1995 68.7952C35.9236 68.7952 36.6185 69.0808 37.1334 69.59C37.6482 70.0993 37.9414 70.7911 37.9493 71.5152C37.9572 72.2393 37.6792 72.9373 37.1756 73.4576C36.672 73.978 35.9834 74.2787 35.2595 74.2945H35.1395Z" fill="white"/>
<path d="M45.3994 22.4644C44.7039 22.4387 44.0105 22.5558 43.3621 22.8087C42.7136 23.0615 42.1239 23.4446 41.6294 23.9344C39.3994 26.0744 38.2994 30.4944 38.3994 36.3744C38.5194 43.6244 40.2494 57.8444 45.9494 65.1744C46.7874 66.2703 47.8011 67.2198 48.9494 67.9844C50.0709 68.8291 51.4354 69.2886 52.8394 69.2944C53.3493 69.2952 53.8582 69.2483 54.3594 69.1544C57.6294 68.3744 61.7294 64.7344 64.7694 59.8844C64.9988 59.5243 65.315 59.2275 65.6889 59.0214C66.0628 58.8152 66.4825 58.7062 66.9094 58.7044C67.3834 58.7088 67.8471 58.8438 68.2494 59.0944C68.5285 59.2703 68.7703 59.4995 68.9607 59.7689C69.1512 60.0383 69.2867 60.3426 69.3594 60.6644C69.4355 60.9864 69.4464 61.3204 69.3915 61.6467C69.3365 61.9731 69.2168 62.2851 69.0394 62.5644C65.1894 68.6944 60.0994 72.9944 55.4294 74.0744H55.3194C54.4942 74.2226 53.6578 74.2996 52.8194 74.3044C50.4389 74.2893 48.1207 73.5422 46.1794 72.1644C44.588 71.0897 43.1828 69.7622 42.0194 68.2344C33.9494 57.9544 33.3994 38.6344 33.3994 36.4644C33.3094 31.3244 34.0494 24.3544 38.0694 20.3644C39.025 19.4079 40.1645 18.6551 41.4192 18.1515C42.6739 17.6479 44.0178 17.4039 45.3694 17.4344H45.8394C47.1928 17.4026 48.5385 17.6459 49.795 18.1495C51.0515 18.6531 52.1927 19.4067 53.1494 20.3644C57.1494 24.3644 57.9094 31.3644 57.8194 36.4644C57.7294 41.8244 56.7494 52.2044 51.1894 61.4644C50.8285 61.9971 50.2775 62.3715 49.6493 62.511C49.0212 62.6504 48.3635 62.5443 47.8111 62.2144C47.2587 61.8845 46.8534 61.3558 46.6783 60.7366C46.5032 60.1174 46.5716 59.4548 46.8694 58.8844C50.7494 52.3744 52.6294 45.2044 52.7794 36.3344C52.8794 30.4544 51.7794 26.0344 49.5994 23.8944C49.1049 23.4047 48.5152 23.0215 47.8668 22.7687C47.2183 22.5158 46.5249 22.3987 45.8294 22.4244L45.3994 22.4644Z" fill="white"/>
<path d="M159.672 19.219C147.192 19.219 139.722 26.939 139.722 36.449C139.722 45.959 147.192 53.669 159.672 53.669C172.152 53.669 179.672 45.969 179.672 36.439C179.672 26.909 172.172 19.219 159.672 19.219ZM159.672 49.979C153.672 49.979 149.152 43.919 149.152 36.449C149.152 28.979 153.702 22.919 159.672 22.919C165.642 22.919 170.222 28.979 170.222 36.449C170.222 43.919 165.672 49.979 159.672 49.979Z" fill="#ED1C24"/>
<path d="M181.352 24.309H194.492V52.259H204.392V24.309H215.492V20.489H181.352V24.309Z" fill="#ED1C24"/>
<path d="M219.102 24.309H230.182V52.259H240.082V24.309H253.242V20.489H219.102V24.309Z" fill="#ED1C24"/>
<path d="M120.012 46.549V20.489H110.502V48.489C110.502 48.9863 110.6 49.4786 110.791 49.9379C110.981 50.3971 111.261 50.8143 111.613 51.1654C111.965 51.5165 112.383 51.7948 112.843 51.9841C113.302 52.1735 113.795 52.2703 114.292 52.269H138.582V48.469H121.902C121.651 48.469 121.403 48.4192 121.172 48.3223C120.941 48.2255 120.731 48.0836 120.555 47.9049C120.379 47.7262 120.241 47.5143 120.147 47.2815C120.054 47.0487 120.008 46.7997 120.012 46.549Z" fill="#ED1C24"/>
<path d="M258.622 24.259V48.469C258.622 49.4742 259.022 50.4382 259.732 51.149C260.443 51.8597 261.407 52.259 262.412 52.259H288.312V48.499H270.032C269.531 48.499 269.05 48.2999 268.696 47.9454C268.341 47.591 268.142 47.1103 268.142 46.609V37.239H288.022V33.529H268.142V26.119C268.145 25.6195 268.345 25.1413 268.699 24.789C269.053 24.4368 269.533 24.239 270.032 24.239H288.312V20.489H262.412C261.916 20.4877 261.424 20.5842 260.965 20.7729C260.506 20.9617 260.088 21.239 259.736 21.5891C259.385 21.9392 259.105 22.3551 258.914 22.8132C258.723 23.2713 258.624 23.7626 258.622 24.259V24.259Z" fill="#ED1C24"/>
<path d="M113.032 64.3089C113.75 64.2995 114.465 64.4007 115.152 64.6089C115.742 64.7863 116.29 65.0823 116.762 65.4789C117.196 65.857 117.538 66.3289 117.762 66.8589C118.01 67.4437 118.132 68.0738 118.122 68.7089C118.128 69.31 117.998 69.9048 117.742 70.4489C117.483 70.988 117.115 71.4679 116.662 71.8589C116.183 72.2872 115.631 72.6259 115.032 72.8589C114.391 73.092 113.714 73.2105 113.032 73.2089H108.922C108.767 73.223 108.611 73.2035 108.464 73.1518C108.318 73.1 108.184 73.0171 108.072 72.9089C107.869 72.6666 107.768 72.3543 107.792 72.0389V65.4689C107.768 65.1534 107.869 64.8411 108.072 64.5989C108.186 64.4945 108.321 64.4148 108.467 64.3649C108.613 64.315 108.768 64.2959 108.922 64.3089H113.032ZM112.682 72.1089C113.033 72.1021 113.376 72.0094 113.682 71.8389C114.023 71.6553 114.325 71.4074 114.572 71.1089C114.839 70.7831 115.049 70.4146 115.192 70.0189C115.346 69.5858 115.421 69.1284 115.412 68.6689C115.416 68.2088 115.338 67.7518 115.182 67.3189C115.041 66.9343 114.831 66.5785 114.562 66.2689C114.318 65.9784 114.014 65.7432 113.672 65.5789C113.361 65.426 113.019 65.344 112.672 65.3389H111.262C111.051 65.3176 110.839 65.3594 110.652 65.4589C110.542 65.5289 110.482 65.7189 110.482 66.0189V71.3589C110.476 71.4654 110.476 71.5723 110.482 71.6789C110.481 71.7579 110.505 71.8352 110.552 71.8989C110.602 71.9616 110.668 72.0099 110.742 72.0389C110.862 72.0527 110.983 72.0527 111.102 72.0389L112.682 72.1089Z" fill="#ED1C24"/>
<path d="M126.722 73.169L125.812 71.389H120.702L119.792 73.169H118.042L122.532 64.889C122.616 64.7153 122.748 64.5694 122.912 64.469C123.082 64.3593 123.28 64.3035 123.482 64.309H124.412C124.617 64.3063 124.818 64.3618 124.992 64.469C125.159 64.5701 125.294 64.7155 125.382 64.889L129.572 73.169H126.722ZM121.242 70.339H125.242L123.702 67.339C123.644 67.2337 123.577 67.1334 123.502 67.039C123.472 66.9929 123.43 66.9556 123.381 66.931C123.332 66.9064 123.277 66.8953 123.222 66.899C123.166 66.8989 123.111 66.9115 123.061 66.9358C123.011 66.96 122.967 66.9953 122.932 67.039C122.855 67.1294 122.791 67.2304 122.742 67.339L121.242 70.339Z" fill="#ED1C24"/>
<path d="M134.412 65.3688V73.1688H131.722V65.3688H128.242V64.3088H137.912V65.3688H134.412Z" fill="#ED1C24"/>
<path d="M145.252 73.169L144.352 71.389H139.242L138.322 73.169H136.572L141.062 64.889C141.146 64.7153 141.278 64.5694 141.442 64.469C141.612 64.3593 141.81 64.3035 142.012 64.309H142.922C143.124 64.3076 143.321 64.3631 143.492 64.469C143.659 64.5701 143.794 64.7155 143.882 64.889L148.072 73.169H145.252ZM139.772 70.339H143.772L142.232 67.339C142.174 67.2337 142.107 67.1334 142.032 67.039C142.003 66.9944 141.963 66.9581 141.916 66.9336C141.868 66.9091 141.816 66.8971 141.762 66.899C141.705 66.8989 141.649 66.9113 141.597 66.9355C141.545 66.9597 141.499 66.995 141.462 67.039C141.388 67.1319 141.325 67.2324 141.272 67.339L139.772 70.339Z" fill="#ED1C24"/>
<path d="M163.342 70.4389C163.153 70.8915 162.897 71.3129 162.582 71.6889C162.248 72.0773 161.853 72.4083 161.412 72.6689C160.939 72.9569 160.427 73.1758 159.892 73.3189C159.285 73.4765 158.66 73.5538 158.032 73.5489C157.236 73.5594 156.444 73.4308 155.692 73.1689C155.056 72.9445 154.466 72.6056 153.952 72.1689C153.484 71.7405 153.109 71.2195 152.852 70.6389C152.599 70.0411 152.47 69.3981 152.472 68.7489C152.47 68.1062 152.599 67.4697 152.852 66.8789C153.102 66.2994 153.47 65.7783 153.932 65.3489C154.444 64.9042 155.039 64.5644 155.682 64.3489C156.438 64.0897 157.233 63.9644 158.032 63.9789C158.679 63.9686 159.324 64.0425 159.952 64.1989C160.478 64.3316 160.981 64.544 161.442 64.8289C161.867 65.0919 162.24 65.4309 162.542 65.8289C162.85 66.1935 163.103 66.6011 163.292 67.0389H160.702C160.584 66.7492 160.433 66.474 160.252 66.2189C160.081 65.9801 159.879 65.7649 159.652 65.5789C159.436 65.3944 159.189 65.2489 158.922 65.1489C158.657 65.0484 158.376 64.9976 158.092 64.9989C157.676 64.9985 157.266 65.1053 156.902 65.3089C156.537 65.512 156.219 65.7917 155.972 66.1289C155.699 66.4945 155.489 66.9036 155.352 67.3389C155.039 68.3143 155.039 69.3635 155.352 70.3389C155.494 70.776 155.711 71.1854 155.992 71.5489C156.244 71.8776 156.565 72.1473 156.932 72.3389C157.286 72.5295 157.681 72.6291 158.082 72.6289C158.366 72.6285 158.647 72.5777 158.912 72.4789C159.181 72.3766 159.43 72.2314 159.652 72.0489C160.148 71.6539 160.522 71.1271 160.732 70.5289L163.342 70.4389Z" fill="#ED1C24"/>
<path d="M175.572 68.739C175.576 69.3689 175.446 69.9925 175.192 70.569C174.939 71.149 174.568 71.67 174.102 72.099C173.59 72.5581 172.996 72.9176 172.352 73.159C171.595 73.4293 170.796 73.5614 169.992 73.549C169.179 73.5628 168.369 73.4308 167.602 73.159C166.96 72.92 166.369 72.5601 165.862 72.099C165.4 71.6696 165.032 71.1485 164.782 70.569C164.541 69.9889 164.415 69.3673 164.412 68.739C164.411 68.1123 164.53 67.4912 164.762 66.909C165.001 66.3254 165.362 65.8001 165.822 65.369C166.332 64.9256 166.923 64.586 167.562 64.369C169.141 63.8493 170.844 63.8493 172.422 64.369C173.066 64.5836 173.661 64.9234 174.172 65.369C174.614 65.8029 174.956 66.3287 175.172 66.909C175.426 67.4862 175.562 68.1084 175.572 68.739V68.739ZM169.992 64.909C169.579 64.9099 169.173 65.0166 168.812 65.219C168.446 65.4258 168.129 65.7088 167.882 66.049C167.609 66.4146 167.399 66.8237 167.262 67.259C166.955 68.2184 166.955 69.2496 167.262 70.209C167.399 70.6443 167.609 71.0534 167.882 71.419C168.129 71.7562 168.447 72.0359 168.812 72.239C169.173 72.4384 169.58 72.5416 169.992 72.539C170.402 72.5417 170.805 72.4384 171.162 72.239C171.528 72.0359 171.845 71.7562 172.092 71.419C172.369 71.0558 172.579 70.646 172.712 70.209C173.019 69.2496 173.019 68.2184 172.712 67.259C172.579 66.822 172.369 66.4123 172.092 66.049C171.845 65.7088 171.528 65.4258 171.162 65.219C170.805 65.0166 170.402 64.9098 169.992 64.909V64.909Z" fill="#ED1C24"/>
<path d="M182.192 73.1688H181.932C181.844 73.1793 181.756 73.158 181.682 73.1088C181.586 73.0557 181.504 72.9802 181.442 72.8888C181.332 72.7477 181.248 72.5887 181.192 72.4188L178.902 66.6088V73.1688H177.312V65.0388C177.31 64.8462 177.381 64.66 177.512 64.5188C177.597 64.4446 177.695 64.3878 177.801 64.3517C177.908 64.3157 178.02 64.3011 178.132 64.3088H179.852C180.102 64.3001 180.348 64.3739 180.552 64.5188C180.726 64.6544 180.861 64.8339 180.942 65.0388L182.812 70.0388L184.812 65.0388C184.901 64.8352 185.038 64.6566 185.212 64.5188C185.412 64.3725 185.655 64.2985 185.902 64.3088H187.742C187.854 64.2994 187.967 64.3131 188.074 64.3493C188.181 64.3854 188.279 64.4431 188.362 64.5188C188.43 64.587 188.484 64.6682 188.52 64.7575C188.556 64.8468 188.574 64.9425 188.572 65.0388V73.1688H185.872V66.4488L183.412 72.5088C183.361 72.6513 183.291 72.786 183.202 72.9088C183.142 72.9855 183.067 73.05 182.982 73.0988C182.908 73.1374 182.826 73.158 182.742 73.1588H182.152L182.192 73.1688Z" fill="#ED1C24"/>
<path d="M195.592 73.1688H195.322C195.238 73.1778 195.153 73.1565 195.082 73.1088C194.986 73.0557 194.904 72.9802 194.842 72.8888C194.732 72.7477 194.648 72.5887 194.592 72.4188L192.292 66.6088V73.1688H190.712V65.0388C190.71 64.8462 190.781 64.66 190.912 64.5188C190.996 64.4436 191.094 64.3862 191.201 64.3501C191.307 64.314 191.42 64.2999 191.532 64.3088H193.252C193.499 64.3 193.742 64.374 193.942 64.5188C194.122 64.6508 194.261 64.8311 194.342 65.0388L196.212 70.0388L198.212 65.0388C198.301 64.8352 198.438 64.6566 198.612 64.5188C198.812 64.3725 199.055 64.2985 199.302 64.3088H201.142C201.254 64.2994 201.367 64.3131 201.474 64.3493C201.581 64.3854 201.679 64.4431 201.762 64.5188C201.829 64.5875 201.881 64.669 201.915 64.7584C201.95 64.8477 201.966 64.9431 201.962 65.0388V73.1688H199.272V66.4488L196.842 72.5088C196.798 72.6524 196.731 72.7876 196.642 72.9088C196.578 72.986 196.5 73.0504 196.412 73.0988C196.342 73.1386 196.263 73.1593 196.182 73.1588H195.592V73.1688Z" fill="#ED1C24"/>
<path d="M206.532 64.3088V70.1488C206.524 70.49 206.582 70.8295 206.702 71.1488C206.804 71.4236 206.964 71.6729 207.172 71.8788C207.371 72.0723 207.61 72.2192 207.872 72.3088C208.144 72.4104 208.432 72.4613 208.722 72.4588C209.019 72.4611 209.313 72.4103 209.592 72.3088C209.853 72.2213 210.089 72.0741 210.282 71.8788C210.486 71.6693 210.646 71.4211 210.752 71.1488C210.868 70.8282 210.925 70.4896 210.922 70.1488V64.3088H213.612V69.7988C213.621 70.3285 213.504 70.8527 213.272 71.3288C213.039 71.7971 212.696 72.202 212.272 72.5088C211.807 72.8561 211.282 73.1138 210.722 73.2688C209.389 73.629 207.985 73.629 206.652 73.2688C206.099 73.1139 205.58 72.8561 205.122 72.5088C204.699 72.2011 204.356 71.7965 204.122 71.3288C203.895 70.851 203.779 70.328 203.782 69.7988V64.3088H206.532Z" fill="#ED1C24"/>
<path d="M225.702 72.419C225.704 72.6162 225.628 72.8063 225.492 72.949C225.411 73.0252 225.315 73.0841 225.21 73.1219C225.105 73.1597 224.994 73.1757 224.882 73.169H223.412C223.144 73.1864 222.878 73.1084 222.662 72.949C222.478 72.7926 222.316 72.6108 222.182 72.409L218.242 66.209V73.209H215.552V65.099C215.548 64.9032 215.62 64.7133 215.752 64.569C215.833 64.4913 215.928 64.4315 216.034 64.3935C216.139 64.3556 216.251 64.3404 216.362 64.349H217.932C218.184 64.3408 218.432 64.4107 218.642 64.549C218.829 64.6889 218.988 64.8618 219.112 65.059L222.972 71.249V64.349H225.662L225.702 72.419Z" fill="#ED1C24"/>
<path d="M227.712 64.3088H230.412V73.1688H227.712V64.3088Z" fill="#ED1C24"/>
<path d="M242.862 70.4389C242.673 70.8915 242.417 71.3129 242.102 71.6889C241.779 72.0819 241.394 72.4196 240.962 72.6889C240.492 72.9751 239.983 73.1939 239.452 73.3389C238.845 73.4953 238.22 73.5726 237.592 73.5689C236.796 73.5813 236.004 73.4526 235.252 73.1889C234.612 72.9669 234.019 72.6278 233.502 72.1889C233.037 71.7599 232.666 71.2389 232.412 70.6589C232.154 70.0626 232.025 69.4186 232.032 68.7689C232.026 68.1268 232.152 67.4903 232.402 66.8989C232.652 66.3194 233.02 65.7983 233.482 65.3689C233.996 64.9263 234.59 64.5868 235.232 64.3689C235.991 64.1097 236.79 63.9845 237.592 63.9989C238.239 63.9898 238.884 64.0638 239.512 64.2189C240.035 64.3515 240.534 64.564 240.992 64.8489C241.418 65.1144 241.794 65.4529 242.102 65.8489C242.403 66.2163 242.652 66.6235 242.842 67.0589H240.222C240.104 66.7692 239.953 66.4941 239.772 66.2389C239.601 66.0001 239.399 65.7849 239.172 65.5989C238.957 65.4124 238.71 65.2666 238.442 65.1689C238.177 65.0684 237.896 65.0176 237.612 65.0189C237.199 65.0184 236.792 65.1252 236.432 65.3289C236.064 65.5316 235.743 65.8113 235.492 66.1489C235.219 66.5145 235.009 66.9236 234.872 67.3589C234.722 67.8342 234.647 68.3304 234.652 68.8289C234.649 69.3478 234.727 69.8639 234.882 70.3589C235.024 70.796 235.241 71.2053 235.522 71.5689C235.776 71.8955 236.097 72.1647 236.462 72.3589C236.816 72.5483 237.211 72.6479 237.612 72.6489C237.896 72.6496 238.177 72.5988 238.442 72.4989C238.711 72.3966 238.96 72.2514 239.182 72.0689C239.422 71.879 239.634 71.6569 239.812 71.4089C240.007 71.1462 240.162 70.8564 240.272 70.5489L242.862 70.4389Z" fill="#ED1C24"/>
<path d="M251.412 73.169L250.502 71.389H245.392L244.412 73.169H242.662L247.152 64.889C247.241 64.7155 247.376 64.5701 247.542 64.469C247.712 64.3593 247.91 64.3035 248.112 64.309H249.012C249.214 64.3035 249.413 64.3593 249.582 64.469C249.754 64.5664 249.893 64.7125 249.982 64.889L254.172 73.169H251.412ZM245.932 70.339H249.932L248.402 67.339C248.344 67.2337 248.277 67.1334 248.202 67.039C248.17 66.9949 248.128 66.9592 248.079 66.9348C248.031 66.9104 247.977 66.8981 247.922 66.899C247.865 66.8989 247.808 66.9113 247.757 66.9355C247.705 66.9597 247.659 66.995 247.622 67.039C247.548 67.1319 247.485 67.2324 247.432 67.339L245.932 70.339Z" fill="#ED1C24"/>
<path d="M259.072 65.3688V73.1688H256.412V65.3688H252.932V64.3088H262.602V65.3688H259.072Z" fill="#ED1C24"/>
<path d="M263.712 64.3088H266.412V73.1688H263.712V64.3088Z" fill="#ED1C24"/>
<path d="M279.182 68.7389C279.181 69.3683 279.051 69.9909 278.802 70.5689C278.545 71.1495 278.171 71.6704 277.702 72.0989C277.19 72.558 276.596 72.9175 275.952 73.1589C274.415 73.6786 272.75 73.6786 271.212 73.1589C270.57 72.9198 269.979 72.56 269.472 72.0989C269.011 71.6728 268.649 71.1505 268.412 70.5689C268.166 69.9903 268.04 69.3677 268.042 68.7389C268.041 68.1122 268.16 67.491 268.392 66.9089C268.609 66.3285 268.95 65.8028 269.392 65.3689C269.904 64.9233 270.499 64.5835 271.142 64.3689C271.919 64.0947 272.739 63.9625 273.562 63.9789C274.389 63.9644 275.212 64.0964 275.992 64.3689C276.636 64.5835 277.231 64.9233 277.742 65.3689C278.202 65.8 278.564 66.3253 278.802 66.9089C279.045 67.489 279.174 68.1102 279.182 68.7389V68.7389ZM273.592 64.9089C273.182 64.9097 272.779 65.0165 272.422 65.2189C272.055 65.4282 271.735 65.7107 271.482 66.0489C271.213 66.4169 271.004 66.8253 270.862 67.2589C270.569 68.2203 270.569 69.2475 270.862 70.2089C271.004 70.6425 271.213 71.0509 271.482 71.4189C271.735 71.7551 272.055 72.0344 272.422 72.2389C272.78 72.4383 273.183 72.5416 273.592 72.5389C274.005 72.5402 274.411 72.437 274.772 72.2389C275.138 72.0358 275.455 71.7561 275.702 71.4189C275.975 71.0533 276.185 70.6442 276.322 70.2089C276.629 69.2495 276.629 68.2183 276.322 67.2589C276.185 66.8236 275.975 66.4145 275.702 66.0489C275.455 65.7087 275.138 65.4257 274.772 65.2189C274.411 65.0177 274.005 64.9111 273.592 64.9089V64.9089Z" fill="#ED1C24"/>
<path d="M291.032 72.419C291.034 72.6162 290.958 72.8062 290.822 72.949C290.741 73.0252 290.645 73.084 290.54 73.1218C290.435 73.1597 290.323 73.1757 290.212 73.169H288.782C288.514 73.1899 288.247 73.1116 288.032 72.949C287.842 72.7979 287.68 72.6152 287.552 72.409L283.612 66.209V73.209H280.922V65.099C280.918 65.0017 280.933 64.9046 280.968 64.8135C281.002 64.7224 281.055 64.6392 281.122 64.569C281.202 64.4901 281.298 64.4296 281.403 64.3916C281.508 64.3536 281.621 64.3391 281.732 64.349H283.302C283.554 64.3421 283.801 64.4118 284.012 64.549C284.196 64.6915 284.355 64.8639 284.482 65.059L288.342 71.249V64.349H291.032V72.419Z" fill="#ED1C24"/>
</svg>
